PathFileType	3	(X/Y/Z)	E:\ViconData\BIOM9541 2025\Week 7\Wed1100\Hanif 90 squat 5 Squat 01.trc
DataRate	CameraRate	NumFrames	NumMarkers	Units	OrigDataRate	OrigDataStartFrame	OrigNumFrames
200.0	200.0	20	19	mm	200.0	1159	1853	
Frame#	Time	C7			CLAV			RBAK			LASI			RASI			LPSI			RPSI			LTHI			LKNE			LTIB			LANK			LHEE			LTOE			RTHI			RKNE			RTIB			RANK			RHEE			RTOE			
		X1	Y1	Z1	X2	Y2	Z2	X3	Y3	Z3	X4	Y4	Z4	X5	Y5	Z5	X6	Y6	Z6	X7	Y7	Z7	X8	Y8	Z8	X9	Y9	Z9	X10	Y10	Z10	X11	Y11	Z11	X12	Y12	Z12	X13	Y13	Z13	X14	Y14	Z14	X15	Y15	Z15	X16	Y16	Z16	X17	Y17	Z17	X18	Y18	Z18	X19	Y19	Z19	
1159	5.79	330.86078	1056.0504	-1211.2004	186.81126	971.77478	-1205.547	353.52109	976.61975	-1357.4586	289.6557	614.61584	-1082.6294	282.41779	634.83826	-1342.2839	456.29526	685.07312	-1165.9194	456.05954	683.48822	-1240.3026	189.37772	467.5546	-928.02399	102.11397	364.09091	-892.39972	210.54158	188.06795	-919.30371	297.1756	63.52409	-972.88721	322.62222	54.023762	-1035.287	161.75555	38.9618	-944.77606	311.56348	567.70038	-1427.6735	114.1083	357.26657	-1521.1863	147.95493	279.14362	-1519.7371	290.93533	70.157715	-1435.3623	317.40515	52.437908	-1363.1276	164.07147	40.925251	-1465.7423
1160	5.795	330.7352	1052.5084	-1211.1534	186.61679	968.2442	-1205.4165	353.35181	973.07446	-1357.3862	289.79636	611.32391	-1082.4926	282.63312	631.54211	-1342.2152	456.48596	681.64539	-1165.9819	456.33835	680.24115	-1240.2805	188.94667	466.38721	-927.88062	101.31186	363.44199	-892.01202	210.10408	187.80972	-919.12494	300.75308	66.097687	-976.64807	322.51923	53.910526	-1035.2327	161.77162	38.951488	-944.78784	311.88593	565.36176	-1427.5194	113.23151	356.51294	-1521.7113	147.23341	278.50815	-1520.157	290.88287	70.124161	-1435.3474	317.34839	52.46841	-1363.0978	164.06599	40.898552	-1465.7262
1161	5.8	330.57016	1049.0333	-1211.0872	186.46869	964.65411	-1205.3721	353.22897	969.63257	-1357.3289	289.97601	608.07104	-1082.6301	282.79254	628.31165	-1342.2216	456.72305	678.289	-1166.2135	456.56662	677.02014	-1240.2526	188.52269	465.16943	-927.73737	100.42784	362.82391	-891.47321	209.6684	187.58165	-918.90833	298.11383	64.641121	-973.52777	322.40131	53.842068	-1035.2092	161.78188	38.920074	-944.85828	312.1423	563.19397	-1427.4641	112.45518	355.76453	-1522.2568	146.57425	277.90253	-1520.6245	290.85599	70.065742	-1435.3264	317.29898	52.495869	-1363.123	164.06026	40.852001	-1465.7347
1162	5.805	330.3772	1045.6204	-1210.9891	186.30162	961.21625	-1205.3761	353.09106	966.24902	-1357.3062	290.10336	604.82184	-1082.5294	282.95071	625.12195	-1342.2332	456.88919	674.93604	-1166.2722	456.71368	673.70538	-1240.1858	188.12662	463.97943	-927.6189	99.695786	362.24475	-891.1004	209.24092	187.2757	-918.73547	300.3717	65.529121	-976.87311	322.32617	53.825138	-1035.2195	161.77971	38.886597	-944.84869	312.44803	560.93256	-1427.2517	111.67955	355.09744	-1522.8314	145.88869	277.31021	-1521.0598	290.78186	70.085709	-1435.318	317.24551	52.498932	-1363.1184	164.02591	40.812992	-1465.7239
1163	5.81	330.17493	1042.2529	-1210.8896	186.09581	957.78906	-1205.3044	352.85968	962.92682	-1357.2397	290.22607	601.63318	-1082.5133	283.10681	621.97064	-1342.2623	457.05441	671.65442	-1166.0911	456.93076	670.50861	-1240.151	187.78452	462.79248	-927.53058	98.863922	361.48996	-890.71783	208.83336	186.81989	-918.67096	300.57462	66.117332	-976.72559	322.33948	53.93541	-1035.3464	161.7643	38.912037	-944.84192	312.66467	558.89386	-1427.2283	110.93118	354.51062	-1523.3707	145.19495	276.82477	-1521.479	290.6835	70.111115	-1435.3018	317.12827	52.581104	-1363.0139	163.97316	40.87738	-1465.7688
1164	5.815	329.9859	1038.9539	-1210.8746	185.92761	954.37122	-1205.1302	352.69754	959.65955	-1357.2166	289.46152	598.8653	-1080.6738	283.30014	618.86987	-1342.2031	457.22079	668.50446	-1165.9012	457.0177	667.0127	-1240.0701	187.43704	461.54193	-927.45874	98.139015	360.87125	-890.33545	208.40804	186.49843	-918.57043	300.4675	66.076561	-976.70972	322.40741	54.104797	-1035.5184	161.73457	38.911369	-944.78668	312.99667	556.65857	-1427.0055	110.1549	353.93488	-1523.9136	144.53036	276.31201	-1521.8693	290.6033	70.144417	-1435.2982	316.9913	52.645901	-1362.873	163.92616	40.919678	-1465.816
1165	5.82	329.78098	1035.5917	-1210.8689	185.75552	951.00775	-1205.0577	352.50323	956.38208	-1357.1958	290.32684	595.43494	-1082.2064	283.39658	615.87482	-1342.3363	457.34744	665.29578	-1165.6772	457.12851	663.62158	-1239.9808	187.08974	460.3063	-927.41132	97.380692	360.26187	-889.97955	208.02884	186.25311	-918.39722	300.42111	66.094185	-976.75336	322.3038	54.129124	-1035.5227	161.71817	38.897232	-944.80896	313.31516	554.47467	-1426.9738	109.50089	353.27722	-1524.4298	143.93346	275.75723	-1522.2642	290.5318	70.118889	-1435.2706	316.85794	52.68409	-1362.7587	163.9135	40.862362	-1465.7721
1166	5.825	329.60156	1032.3423	-1210.8488	185.63547	947.65137	-1205.1079	352.36499	953.20874	-1357.2264	290.40256	592.36707	-1082.1759	283.62561	612.72931	-1342.2622	457.53387	662.17535	-1165.9863	457.38211	660.7392	-1239.949	186.72466	459.21378	-927.34601	96.643951	359.65845	-889.65521	207.62994	186.02116	-918.24243	300.48816	65.962631	-976.95996	322.22763	54.065311	-1035.5288	161.69661	38.840488	-944.8512	313.60007	552.30316	-1426.8455	108.79532	352.58548	-1524.9244	143.32452	275.12128	-1522.6438	290.48102	70.019127	-1435.2559	316.79623	52.697342	-1362.7819	163.90865	40.808224	-1465.771
1167	5.83	329.39938	1029.1705	-1210.8422	185.50308	944.37396	-1205.177	352.08289	949.99963	-1357.1982	290.55554	589.492	-1082.2273	283.68405	609.80676	-1342.454	457.715	659.00806	-1165.9896	457.62415	657.74402	-1239.9379	186.40277	458.10669	-927.36108	96.016121	359.12152	-889.33832	207.2135	185.68175	-918.21558	300.43216	65.981415	-977.00415	322.06528	53.918381	-1035.4552	161.67825	38.814232	-944.93243	313.89203	550.15436	-1426.7775	108.17515	351.86307	-1525.4027	142.73235	274.55289	-1523.0188	290.42722	69.957069	-1435.2383	316.74036	52.686836	-1362.7643	163.8924	40.731289	-1465.7474
1168	5.835	329.21411	1026.0303	-1210.844	185.30893	941.12866	-1205.184	351.90897	946.96588	-1357.2621	290.62503	586.5368	-1082.1843	283.89432	606.81061	-1342.3978	457.84824	656.05176	-1165.8766	457.77759	654.66779	-1239.9103	186.12376	457.00558	-927.33685	95.307854	358.61185	-889.01019	206.81772	185.4431	-918.08325	300.38699	66.042404	-977.04449	322.01111	53.996876	-1035.5215	161.65703	38.817539	-944.91565	314.21729	548.1181	-1426.7288	107.52029	351.34995	-1525.9022	142.14949	274.02942	-1523.3868	290.3703	69.963509	-1435.214	316.6976	52.779865	-1362.6987	163.86761	40.723785	-1465.736
1169	5.84	329.06689	1022.9702	-1210.8788	185.17395	938.0592	-1205.1371	351.61945	943.88892	-1357.246	290.81171	583.69281	-1082.2883	284.03909	603.93292	-1342.4749	458.00363	653.12976	-1165.7633	457.85553	651.36084	-1239.9552	185.82472	455.89084	-927.29315	94.666267	358.02728	-888.71497	206.42848	185.10381	-917.95898	300.34735	66.081253	-977.03778	321.99075	54.150196	-1035.5785	161.66502	38.867352	-944.88416	314.5679	546.02319	-1426.5394	106.94414	350.77966	-1526.3381	141.64838	273.60944	-1523.7296	290.31207	70.015236	-1435.1924	316.62662	52.890381	-1362.4928	163.86385	40.797958	-1465.7626
1170	5.845	328.83899	1019.9294	-1210.8583	184.99907	934.95972	-1205.2079	351.42761	940.94086	-1357.3184	290.8588	580.87372	-1082.2301	284.19174	601.10553	-1342.4978	458.1048	650.16327	-1165.5858	458.0484	648.41919	-1239.9335	185.49869	454.7395	-927.17584	94.00872	357.44376	-888.3783	206.05986	184.85196	-917.81641	297.29077	68.043083	-967.59882	322.62433	54.828785	-1036.0909	161.64227	38.872177	-944.87903	314.8569	544.00928	-1426.5516	106.39407	350.17654	-1526.7703	141.13242	273.13809	-1524.0383	290.27789	70.029678	-1435.1826	316.57309	52.925846	-1362.4351	163.85709	40.786369	-1465.7408
1171	5.85	328.66513	1016.9116	-1210.8942	184.80289	931.84338	-1205.1422	351.24179	937.97333	-1357.3754	290.94254	578.17249	-1082.306	284.33417	598.21118	-1342.5363	458.27264	647.21942	-1165.9545	458.21609	645.67511	-1239.9165	185.23764	453.72409	-927.10901	93.423088	356.90503	-888.11511	205.71977	184.59326	-917.73151	297.23843	68.056343	-967.59045	321.87366	54.118149	-1035.6649	161.62938	38.796352	-944.91675	315.21307	541.85907	-1426.4121	105.81369	349.58868	-1527.2599	140.61839	272.54388	-1524.3291	290.24695	69.928452	-1435.1775	316.57278	52.908661	-1362.4747	163.85497	40.724491	-1465.7157
1172	5.855	328.43002	1013.9568	-1210.9086	184.63339	928.84143	-1205.1553	351.0145	935.02386	-1357.476	291.01221	575.41681	-1082.2545	284.47614	595.41229	-1342.5629	458.41898	644.24042	-1166.1869	458.44577	642.83582	-1239.9795	184.96489	452.6879	-926.99622	92.813187	356.49271	-887.72949	205.43156	184.41496	-917.67261	296.91522	67.733604	-966.62207	321.98822	54.180134	-1035.8763	161.63823	38.752926	-944.99139	315.53552	539.80756	-1426.3535	105.30821	348.92404	-1527.6493	140.12029	272.06454	-1524.647	290.23291	69.839874	-1435.1581	316.52869	52.875397	-1362.5315	163.84917	40.666615	-1465.7626
1173	5.86	328.16876	1010.9969	-1210.9348	184.4684	925.90515	-1205.2577	350.80396	932.21454	-1357.5253	291.08173	572.80426	-1082.2639	284.56149	592.68048	-1342.5784	458.53198	641.51959	-1166.2253	458.57141	640.05688	-1240.012	184.69585	451.65088	-926.9068	92.233353	355.99301	-887.36804	205.06583	184.19763	-917.54047	297.02243	67.312325	-967.57117	321.90778	54.195026	-1035.9189	161.58949	38.73642	-944.99762	315.82266	537.88965	-1426.3789	104.72838	348.43762	-1528.111	139.62056	271.59537	-1525.0055	290.15674	69.844879	-1435.1791	316.45309	52.984348	-1362.4701	163.8102	40.635242	-1465.7389
1174	5.865	327.99518	1008.2816	-1211.0205	184.2301	922.95154	-1205.2698	350.55829	929.45276	-1357.5964	291.1637	570.19769	-1082.3446	284.69577	590.11621	-1342.7439	458.6582	638.75903	-1166.0027	458.6402	637.16754	-1240.0088	184.5056	450.54773	-926.96466	91.777756	355.46939	-887.1123	204.79669	183.97151	-917.41949	299.7211	65.593307	-977.3053	321.83649	54.291374	-1035.932	161.56589	38.785217	-944.97412	316.14725	536.06384	-1426.3861	104.17283	348.01581	-1528.5536	139.14532	271.26645	-1525.3734	290.07809	69.910278	-1435.1639	316.37784	53.059036	-1362.3607	163.80565	40.665901	-1465.7296
1175	5.87	327.72369	1005.397	-1211.0492	184.07535	920.11707	-1205.3782	350.30515	926.70654	-1357.6522	291.30887	567.59399	-1082.5328	284.78571	587.53607	-1342.7684	458.76041	636.11432	-1165.8486	458.70111	634.35944	-1239.9961	184.28503	449.53165	-926.93719	91.258041	354.99756	-886.72681	204.50441	183.67903	-917.29773	296.90677	67.32814	-967.46527	321.76764	54.383385	-1035.9727	161.54718	38.799747	-944.96765	316.47388	534.17413	-1426.4258	103.75449	347.50955	-1529.0309	138.70853	270.81158	-1525.6848	290.04208	69.925758	-1435.1615	316.29117	53.159618	-1362.2371	163.78256	40.68874	-1465.7466
1176	5.875	327.50467	1002.7387	-1211.0918	183.87498	917.2298	-1205.49	350.22037	924.01984	-1357.7554	291.29147	565.10223	-1082.4872	284.91101	584.98834	-1342.9058	458.87051	633.44586	-1166.0315	458.88147	631.72644	-1240.0084	184.08356	448.60706	-926.9035	90.760963	354.6152	-886.41949	204.22456	183.46048	-917.21381	299.63858	66.141731	-976.9679	321.69882	54.352188	-1035.9668	161.545	38.800793	-945.04144	316.81821	532.26105	-1426.3076	103.27419	347.0101	-1529.4574	138.28969	270.3584	-1525.9985	290.00494	69.88884	-1435.1506	316.23843	53.186588	-1362.21	163.78476	40.654613	-1465.7694
1177	5.88	327.2496	1000.0118	-1211.1292	183.67111	914.4295	-1205.6631	349.97977	921.33862	-1357.8416	291.33997	562.63562	-1082.5026	285.0499	582.47437	-1342.933	458.98694	630.77368	-1166.094	459.05707	629.12189	-1240.0754	183.86658	447.6752	-926.84827	90.320724	354.20319	-886.13397	204.00598	183.32339	-917.11609	296.92044	67.464958	-967.93121	321.64334	54.318268	-1035.9814	161.51831	38.76783	-945.0603	317.1304	530.41156	-1426.2767	102.8266	346.44177	-1529.8873	137.83258	269.91586	-1526.2728	289.99097	69.818687	-1435.1129	316.19598	53.184376	-1362.1803	163.77599	40.57373	-1465.7528
1178	5.885	327.02856	997.45837	-1211.1193	183.48395	911.70844	-1205.624	349.77393	918.76837	-1357.8157	291.49493	560.20593	-1082.7197	285.18967	580.07806	-1343.1364	459.1109	628.17273	-1166.1744	459.16623	626.61401	-1240.0601	183.69972	446.80405	-926.77222	89.891579	353.76294	-885.90625	203.81955	183.14848	-917.04254	297.31854	67.603905	-969.28772	321.54248	54.255543	-1035.9725	161.51016	38.728439	-945.03888	317.37045	528.5976	-1426.1993	102.39387	345.93515	-1530.2632	137.38045	269.43536	-1526.5087	289.93329	69.785645	-1435.0626	316.15414	53.181713	-1362.1613	163.75134	40.574356	-1465.7937
